<svg xmlns="http://www.w3.org/2000/svg" viewBox="0 0 520 110" width="520" height="110" role="img" aria-label="王雨辰 WANG YUCHEN">
<g transform="translate(0,4) scale(0.86)"><defs>
<filter id="bl" x="-60%" y="-60%" width="220%" height="220%"><feGaussianBlur stdDeviation="5"/></filter>
<filter id="dl" x="-60%" y="-60%" width="220%" height="220%"><feDropShadow dx="-3" dy="5" stdDeviation="5" flood-color="#000" flood-opacity="0.30"/></filter>
<clipPath id="cl"><path d="M0,0 L16,0 L32,58 L48,0 L64,0 L32,70 Z" transform="translate(6,0) scale(0.84)"/></clipPath>
</defs>
<path d="M0,0 L16,0 L32,58 L48,0 L64,0 L32,70 Z" transform="translate(6,0) scale(0.84)" fill="currentColor" fill-opacity=".42"
      stroke="currentColor" stroke-opacity=".42" stroke-width="2.6" stroke-linejoin="round"/><g clip-path="url(#cl)"><path d="M0,0 L16,0 L32,58 L48,0 L64,0 L32,70 Z" transform="translate(44,32) scale(1.0)"
      fill="#000" fill-opacity="0.60" filter="url(#bl)"/></g><path d="M0,0 L16,0 L32,58 L48,0 L64,0 L32,70 Z" transform="translate(66,26) scale(1.0)" fill="currentColor" stroke="currentColor"
      stroke-width="2.6" stroke-linejoin="round" filter="url(#dl)"/></g>
<line x1="146" y1="26" x2="146" y2="84" stroke="currentColor" stroke-width="1" opacity=".3"/>
<text x="172" y="56" font-family="'Noto Serif SC','Songti SC',serif" font-weight="700" font-size="34" letter-spacing="5" fill="currentColor">王雨辰</text>
<text x="174" y="82" font-family="'Space Mono',monospace" font-size="11" letter-spacing="4.6" fill="currentColor" opacity=".62">WANG YUCHEN · VV</text>
</svg>